<?xml version="1.0" standalone="no"?>
<!DOCTYPE svg PUBLIC "-//W3C//DTD SVG 20010904//EN"
 "http://www.w3.org/TR/2001/REC-SVG-20010904/DTD/svg10.dtd">
<svg version="1.0" xmlns="http://www.w3.org/2000/svg"
 width="1098.000000pt" height="1098.000000pt" viewBox="0 0 1098.000000 1098.000000"
 preserveAspectRatio="xMidYMid meet">
<metadata>
Created by potrace 1.11, written by Peter Selinger 2001-2013
</metadata>
<g transform="translate(0.000000,1098.000000) scale(0.100000,-0.100000)"
fill="#000000" stroke="none">
<path d="M6630 9710 c0 -5 -5 -10 -10 -10 -6 0 -33 -16 -60 -35 -27 -19 -52
-35 -55 -35 -3 0 -11 -5 -18 -10 -7 -6 -48 -34 -92 -63 -44 -28 -140 -91 -213
-139 -73 -49 -135 -88 -138 -88 -3 0 -11 -6 -19 -12 -7 -7 -49 -35 -94 -63
-44 -27 -81 -53 -81 -57 0 -5 -4 -8 -10 -8 -5 0 -62 -35 -127 -78 -65 -43
-127 -83 -137 -89 -11 -6 -20 -17 -22 -25 -1 -8 -5 -40 -8 -70 -4 -31 -8 -64
-10 -74 -2 -11 -7 -48 -11 -84 -4 -36 -9 -74 -11 -85 -2 -11 -6 -40 -9 -65 -3
-25 -8 -61 -10 -80 -3 -19 -8 -55 -10 -80 -2 -25 -6 -54 -8 -65 -3 -11 -8 -46
-12 -79 -3 -32 -8 -68 -11 -80 -2 -11 -6 -46 -8 -76 -3 -30 -7 -64 -10 -75 -2
-11 -7 -49 -11 -85 -4 -36 -8 -67 -10 -70 -2 -3 -6 -39 -10 -80 -4 -41 -8 -77
-10 -80 -1 -3 -6 -32 -10 -65 -4 -33 -8 -69 -10 -80 -1 -11 -5 -45 -9 -75 -9
-72 -17 -131 -21 -150 -2 -8 -4 -24 -4 -35 -1 -19 -8 -20 -134 -21 -120 -1
-276 -10 -367 -19 -19 -2 -71 -7 -115 -10 -82 -7 -107 -9 -185 -19 -25 -3 -65
-8 -90 -11 -25 -3 -71 -10 -104 -15 -32 -5 -61 -9 -65 -8 -3 0 -8 -1 -11 -2
-10 -3 -46 -10 -85 -15 -22 -2 -50 -6 -61 -9 -12 -2 -37 -7 -55 -10 -56 -9
-89 -16 -189 -37 -108 -23 -127 -27 -155 -33 -19 -4 -189 -45 -210 -50 -5 -2
-17 -6 -25 -9 -8 -4 -26 -9 -40 -11 -14 -3 -65 -17 -115 -31 -49 -15 -103 -30
-120 -35 -16 -5 -41 -12 -55 -16 -14 -4 -31 -11 -37 -17 -7 -5 -13 -7 -13 -4
0 6 -97 -27 -107 -36 -3 -4 -13 -7 -21 -7 -14 0 -274 -98 -352 -133 -25 -11
-48 -21 -52 -21 -3 -1 -10 -4 -14 -8 -9 -10 -34 10 -34 27 0 8 -3 15 -8 17 -4
2 -23 23 -42 48 -202 263 -503 446 -845 515 -153 31 -418 23 -560 -17 -22 -6
-48 -13 -58 -15 -9 -1 -44 -14 -77 -27 -33 -14 -60 -23 -60 -21 0 6 -149 -74
-210 -113 -122 -78 -279 -218 -360 -323 -58 -75 -110 -154 -110 -166 0 -7 -4
-13 -8 -13 -12 0 -116 -225 -127 -274 -2 -12 -14 -57 -25 -101 -27 -110 -34
-170 -34 -315 -1 -132 7 -231 23 -292 5 -21 7 -38 5 -38 -3 0 0 -8 5 -19 6
-10 13 -33 16 -52 18 -102 140 -350 229 -466 45 -57 118 -144 134 -157 7 -6
27 -24 45 -41 18 -16 47 -42 65 -57 l32 -26 -25 -109 c-58 -258 -66 -562 -20
-788 4 -21 21 -101 31 -144 21 -95 103 -308 167 -431 42 -81 141 -246 174
-289 189 -251 357 -431 542 -581 24 -19 60 -50 80 -67 20 -18 39 -33 43 -33 4
0 13 -6 20 -13 7 -7 45 -35 83 -62 39 -27 72 -53 73 -57 2 -5 7 -8 12 -8 7 0
102 -60 192 -122 15 -10 30 -18 33 -18 4 0 26 -14 51 -30 24 -17 44 -28 44
-24 0 4 8 1 17 -7 52 -41 531 -277 545 -268 2 1 21 -7 43 -18 46 -23 295 -118
370 -140 28 -8 55 -18 60 -21 6 -4 16 -8 23 -9 29 -7 47 -12 50 -13 1 -2 5 -3
10 -4 4 -2 32 -10 62 -19 30 -9 57 -17 60 -16 3 0 19 -5 35 -11 36 -14 216
-62 340 -91 50 -11 117 -26 150 -34 33 -8 96 -21 140 -29 44 -9 91 -18 105
-21 14 -2 43 -7 65 -10 47 -6 91 -13 123 -20 12 -3 44 -8 70 -11 26 -3 56 -7
67 -9 51 -6 142 -18 160 -20 11 -1 20 -3 20 -4 0 -1 27 -4 60 -6 33 -2 87 -7
120 -9 33 -3 85 -8 115 -11 165 -14 351 -20 660 -20 351 1 533 8 765 31 44 5
103 9 132 9 28 0 49 3 46 7 -2 5 13 9 34 9 21 1 47 3 58 4 66 8 131 17 215 32
52 8 106 17 120 18 43 5 104 16 140 25 35 9 59 14 134 26 22 3 49 9 60 14 12
4 24 8 29 8 4 0 20 3 35 6 15 4 37 9 50 11 53 12 66 15 136 34 40 11 83 22 97
25 150 30 740 233 861 297 10 5 24 9 32 9 7 0 19 7 26 15 7 8 19 15 26 15 26
0 413 197 519 265 28 17 57 34 65 39 24 11 152 94 185 119 6 4 55 39 110 79
55 39 102 74 105 77 3 4 25 22 50 41 25 19 50 39 56 45 6 5 44 39 84 75 176
157 378 385 471 532 18 29 36 55 40 58 3 3 21 32 39 65 18 33 38 67 45 75 6 8
18 31 25 50 7 19 21 46 30 60 23 35 96 219 117 295 31 112 54 209 59 245 3 25
8 54 10 65 22 113 22 406 0 525 -2 14 -7 47 -11 74 -3 27 -8 53 -10 56 -2 4
-7 20 -9 36 -3 16 -8 38 -11 49 -30 123 -30 113 -5 135 13 11 28 20 33 20 6 0
8 3 4 6 -3 3 10 20 29 37 42 36 139 154 180 217 16 25 31 47 34 50 3 3 14 23
25 45 11 22 27 51 36 65 9 14 21 39 27 55 5 17 23 66 40 110 16 44 30 85 31
90 1 6 6 26 11 45 10 40 18 89 30 175 7 60 5 314 -4 370 -40 248 -156 506
-311 692 -94 112 -190 198 -351 311 -43 30 -208 112 -227 112 -7 0 -17 3 -21
7 -13 13 -123 46 -230 68 -114 24 -303 24 -476 1 -61 -9 -238 -63 -312 -96
-26 -11 -51 -20 -54 -20 -4 1 -10 -2 -13 -7 -3 -4 -22 -16 -41 -27 -85 -46
-212 -136 -251 -178 -9 -10 -21 -18 -27 -18 -6 0 -12 -4 -14 -9 -1 -5 -26 -34
-54 -63 -27 -29 -70 -79 -93 -110 -24 -32 -50 -58 -58 -58 -7 0 -33 10 -56 21
-23 12 -43 21 -45 20 -1 -1 -18 6 -38 14 -20 8 -40 15 -45 15 -5 0 -17 4 -27
9 -37 19 -69 32 -82 35 -8 2 -23 6 -32 9 -10 4 -26 10 -35 14 -10 3 -22 7 -28
9 -5 1 -50 17 -99 34 -49 17 -97 32 -105 33 -15 3 -110 33 -141 44 -8 3 -22 7
-31 9 -8 2 -42 11 -75 20 -32 9 -74 19 -91 21 -18 3 -33 8 -33 12 0 4 -8 7
-17 7 -10 1 -30 4 -45 8 -16 3 -38 8 -50 11 -27 6 -34 7 -158 35 -52 12 -113
24 -135 27 -21 2 -43 7 -47 9 -4 3 -27 7 -50 10 -24 2 -50 7 -57 10 -8 3 -34
7 -57 10 -23 3 -53 7 -65 10 -28 5 -67 11 -129 19 -25 3 -56 7 -70 10 -32 6
-142 17 -280 29 -36 3 -81 8 -101 10 -37 5 -238 18 -296 20 -31 1 -38 8 -33
31 1 6 4 26 5 45 2 19 6 51 9 70 13 94 19 137 22 160 6 59 15 127 19 151 3 14
7 51 10 81 3 30 8 66 10 79 3 13 8 47 11 74 3 28 7 60 9 71 2 12 6 48 10 80 4
33 9 70 11 84 3 14 7 48 10 75 3 28 7 61 10 75 2 14 7 50 10 80 3 30 7 66 10
80 2 14 7 46 10 72 6 46 9 50 73 89 36 23 68 46 69 51 2 4 8 8 14 8 6 0 25 11
42 23 17 13 36 26 41 28 6 2 84 53 175 113 91 59 234 153 318 208 136 90 169
119 144 130 -4 2 -23 28 -42 58 -19 30 -38 60 -42 65 -23 28 -58 87 -58 95 0
6 -3 10 -7 10 -5 0 -35 43 -68 95 -55 88 -75 110 -75 85z m-5125 -2845 c65 -9
101 -16 115 -22 8 -3 17 -7 20 -7 40 -8 158 -66 224 -110 69 -45 196 -168 196
-189 0 -8 -12 -19 -27 -26 -55 -24 -300 -184 -390 -253 -35 -26 -67 -48 -72
-48 -5 0 -11 -3 -13 -7 -1 -5 -25 -26 -53 -48 -27 -22 -55 -44 -61 -50 -6 -5
-33 -28 -60 -50 -52 -43 -277 -268 -334 -333 -43 -50 -45 -53 -100 -127 -25
-33 -47 -62 -50 -65 -3 -3 -30 -42 -60 -87 l-53 -82 -24 25 c-74 80 -153 218
-186 324 -48 153 -55 374 -18 498 1 1 1 4 1 7 0 3 6 21 14 40 9 20 15 37 16
40 0 3 10 26 22 52 12 27 22 50 23 53 2 12 59 95 66 98 5 2 9 9 9 16 0 19 148
164 211 207 107 72 292 150 319 134 6 -3 10 -2 10 3 0 4 24 9 52 11 29 1 54 3
55 5 4 4 107 -2 148 -9z m8200 0 c37 -5 77 -12 83 -14 1 -1 4 -1 7 -2 7 -1
114 -44 163 -65 23 -10 42 -22 42 -26 0 -5 7 -8 15 -8 8 0 15 -3 15 -8 0 -4
15 -15 33 -25 37 -20 148 -124 187 -176 14 -18 30 -38 36 -45 6 -6 15 -22 18
-34 4 -12 11 -22 15 -22 20 0 117 -250 104 -264 -4 -3 -2 -6 3 -6 12 0 17 -61
16 -200 0 -106 -5 -135 -43 -280 -8 -31 -102 -210 -110 -210 -5 0 -9 -7 -9
-15 0 -8 -4 -15 -8 -15 -5 0 -15 -11 -22 -25 l-13 -25 -24 22 c-13 12 -23 25
-23 29 0 12 -111 159 -194 258 -89 106 -356 374 -356 357 0 -3 -16 10 -35 29
-19 19 -37 35 -40 35 -2 0 -15 9 -27 19 -49 42 -67 57 -88 71 -12 8 -37 26
-55 40 -18 14 -43 32 -55 40 -12 8 -40 27 -61 43 -21 15 -41 27 -44 27 -3 0
-11 5 -18 10 -18 16 -135 90 -142 90 -3 0 -11 5 -18 11 -7 6 -38 25 -71 43
l-59 33 66 67 c37 36 97 85 134 109 64 41 155 88 178 91 6 1 15 4 20 7 13 8
150 37 190 41 41 4 141 0 190 -7z m-4250 -45 c3 5 15 6 29 0 12 -4 29 -5 36 0
7 5 24 4 37 -1 13 -5 22 -6 20 -1 -3 4 9 6 26 5 18 -1 32 -2 32 -3 0 0 72 -3
160 -5 88 -2 194 -7 235 -10 157 -12 206 -16 255 -21 27 -3 69 -8 93 -10 48
-4 112 -12 152 -19 14 -3 45 -7 70 -10 25 -3 56 -7 70 -10 14 -3 46 -7 71 -10
25 -3 56 -8 70 -10 13 -3 35 -7 49 -10 14 -3 36 -7 50 -10 14 -3 41 -8 60 -10
40 -5 267 -54 290 -63 8 -3 24 -7 35 -9 11 -2 38 -8 60 -14 22 -6 47 -13 55
-15 8 -2 42 -11 75 -20 33 -9 65 -17 70 -19 6 -1 17 -4 25 -7 8 -3 101 -34
205 -68 105 -34 201 -66 215 -72 14 -6 30 -12 36 -13 6 -2 29 -11 50 -20 84
-37 102 -45 108 -45 9 0 79 -32 254 -116 84 -41 157 -74 162 -74 6 0 10 -4 10
-10 0 -5 6 -10 14 -10 7 0 19 -7 26 -15 7 -8 16 -12 21 -9 5 3 9 0 9 -5 0 -6
4 -11 10 -11 13 0 184 -102 188 -112 2 -5 9 -8 16 -8 7 0 21 -8 32 -18 10 -10
26 -21 34 -25 19 -9 54 -30 60 -38 3 -3 39 -30 80 -61 213 -157 385 -320 530
-505 90 -113 130 -170 130 -183 0 -5 5 -10 12 -10 6 0 8 -3 5 -7 -4 -3 -1 -14
7 -22 22 -25 111 -208 136 -281 12 -36 25 -72 28 -80 13 -36 30 -102 36 -140
3 -19 8 -46 10 -60 16 -91 22 -266 12 -355 -12 -109 -47 -273 -64 -300 -4 -5
-7 -16 -8 -24 -7 -43 -139 -322 -156 -329 -5 -2 -8 -8 -8 -13 0 -6 -5 -15 -10
-22 -6 -7 -27 -38 -48 -69 -21 -31 -49 -70 -62 -85 -14 -15 -33 -41 -43 -56
-25 -39 -267 -282 -342 -343 -33 -27 -65 -53 -71 -59 -6 -5 -23 -19 -38 -30
-16 -11 -43 -31 -61 -45 -85 -64 -214 -150 -225 -150 -6 0 -10 -4 -10 -10 0
-5 -5 -10 -10 -10 -6 0 -34 -15 -63 -34 -71 -47 -327 -182 -397 -210 -8 -3
-22 -10 -30 -15 -16 -10 -53 -23 -59 -21 -2 1 -7 -2 -10 -7 -3 -5 -26 -17 -51
-27 -72 -29 -83 -34 -130 -54 -25 -11 -56 -23 -70 -27 -14 -4 -38 -13 -55 -21
-71 -32 -456 -154 -600 -190 -113 -28 -270 -65 -295 -69 -14 -2 -25 -4 -25 -5
0 -1 -9 -3 -20 -5 -71 -13 -161 -31 -172 -35 -5 -1 -11 -2 -15 -1 -4 0 -42 -6
-85 -13 -43 -8 -96 -17 -118 -20 -22 -3 -49 -7 -60 -10 -11 -2 -47 -7 -80 -10
-33 -4 -78 -9 -100 -12 -144 -17 -310 -31 -495 -41 -168 -9 -697 -8 -840 0
-249 16 -301 20 -395 32 -16 2 -55 7 -85 10 -95 10 -144 16 -170 21 -14 3 -43
7 -65 10 -40 5 -127 19 -175 29 -14 3 -38 7 -55 10 -39 6 -83 14 -120 22 -16
3 -37 7 -45 8 -8 1 -45 10 -81 18 -66 16 -76 18 -154 36 -83 18 -356 93 -395
108 -8 4 -18 7 -22 8 -5 2 -9 3 -10 5 -2 1 -10 3 -18 5 -36 8 -183 59 -245 85
-11 5 -45 18 -75 28 -30 11 -73 28 -95 38 -22 10 -43 19 -47 20 -5 1 -11 3
-15 4 -5 1 -11 2 -15 1 -5 0 -8 4 -8 9 0 6 -7 10 -15 10 -30 0 -412 194 -553
281 -35 21 -67 39 -72 39 -4 0 -10 3 -12 8 -1 4 -28 23 -58 42 -30 19 -59 38
-65 42 -5 5 -53 40 -105 80 -131 98 -167 127 -210 168 -21 19 -57 53 -81 75
-313 289 -556 710 -594 1030 -2 17 -7 50 -11 75 -17 110 -1 390 26 460 1 3 2
9 1 13 -1 4 3 16 8 25 5 9 11 31 14 47 16 100 156 387 249 510 157 208 310
370 473 500 27 22 56 46 65 52 8 7 49 37 90 67 41 31 80 59 85 64 20 16 222
140 305 187 169 96 534 268 568 268 6 0 12 3 12 7 0 5 98 41 120 45 3 0 12 5
20 10 8 5 20 10 25 11 6 1 42 13 80 27 82 29 288 95 319 102 11 2 62 16 111
30 50 14 99 27 110 29 11 2 40 9 65 16 25 7 54 14 65 16 11 1 50 10 86 18 36
8 77 17 90 19 13 3 62 12 109 21 47 9 94 18 105 20 33 6 119 19 140 21 19 2
76 11 135 20 58 9 138 18 177 19 24 0 43 3 43 6 0 3 26 6 58 8 31 1 80 5 107
7 117 11 268 18 382 19 68 1 123 4 123 8 0 4 13 3 30 -2 17 -5 32 -5 35 0z"/>
</g>
</svg>
